<svg viewBox="0 0 52 36" fill="none" xmlns="http://www.w3.org/2000/svg">
<path d="M0.39461 24.6371C4.02403 27.2069 7.66173 29.765 11.2862 32.3381C11.8748 32.7539 12.4484 33.1698 13.2045 33.2046C13.3173 33.2112 13.4283 33.2361 13.5394 33.2576C16.1856 33.7745 18.8335 34.2948 21.4797 34.8084C25.3728 35.5623 29.2658 36.3128 33.1605 37.0584C33.328 37.0899 33.5087 37.0451 33.6728 37.0352C34.4952 34.0844 35.311 31.1485 36.1267 28.2192C41.2085 26.6552 46.7961 25.0895 51.8398 23.5354C51.9028 23.4326 51.9592 23.3382 52.0023 23.2636C51.7602 21.8603 51.5248 20.4835 51.2827 19.1067C51.0091 17.5592 50.7405 16.0101 50.4504 14.4642C50.3128 13.7319 50.2216 12.9714 49.9513 12.2855C48.9664 9.78204 47.9119 7.30343 46.884 4.81653C46.4081 3.66504 45.9323 2.51355 45.4564 1.35874C45.3519 1.314 45.2525 1.27093 45.158 1.2295C41.6048 2.26502 37.6786 3.48942 34.1022 4.53156C33.9414 4.22505 33.7823 3.91853 33.6198 3.61368C33.4623 3.31379 33.2517 3.17131 32.9234 3.14148C31.7827 3.04207 30.6453 2.93107 29.5079 2.82006C28.1068 2.68088 26.7058 2.53674 25.3064 2.39591C24.2436 2.28987 23.1808 2.18052 22.118 2.07614C20.9425 1.96017 19.767 1.85081 18.5914 1.73649C17.1655 1.59732 15.7413 1.4598 14.3154 1.31732C13.2145 1.20797 12.1135 1.09862 11.0143 0.972697C10.5251 0.918022 10.4323 0.954472 10.2317 1.40513C9.63146 2.75544 9.02794 4.10244 8.42442 5.4511C6.84764 8.9702 5.2692 12.4876 3.69076 16.0051C2.47543 18.7239 1.25512 21.4411 0 24.2345C0.116062 24.3538 0.23544 24.5245 0.39461 24.6371ZM29.1348 35.993C26.3394 35.4513 23.5439 34.9078 20.7469 34.366C18.036 33.8408 15.3268 33.3189 12.6176 32.7887C12.4518 32.7556 12.281 32.6827 12.1417 32.5866C8.33157 29.9042 4.52475 27.2185 0.716267 24.5311C0.678132 24.5063 0.651604 24.4648 0.568702 24.3737C1.17886 24.4781 1.71937 24.5659 2.25989 24.662C4.71708 25.1027 7.17759 25.5434 9.63478 25.9841C11.8466 26.3785 14.0567 26.7761 16.2685 27.1671C18.4687 27.5581 20.6689 27.9409 22.8658 28.3302C23.5572 28.4528 24.2519 28.5738 24.94 28.7113C25.0776 28.7395 25.2252 28.8206 25.323 28.9217C27.8731 31.4782 30.4165 34.038 32.9615 36.5994C32.9847 36.6226 33.0013 36.6558 33.0676 36.7552C31.7147 36.4917 30.4231 36.2432 29.1332 35.993H29.1348ZM51.6856 23.2454C46.6668 24.7912 41.2533 26.3056 36.2312 27.8481C36.3505 27.4206 36.4683 26.9915 36.5893 26.564C40.9565 25.1889 45.8295 23.8104 50.0956 22.4634C49.6297 19.7893 49.1754 17.1748 48.7211 14.5653C48.6265 14.509 48.5436 14.456 48.4607 14.4046C43.7835 15.7897 39.1128 17.1731 34.4339 18.5583C34.3659 18.6577 34.2979 18.7587 34.2498 18.83C34.4753 19.5805 34.6875 20.2963 34.913 21.0087C34.9561 21.1462 35.0523 21.2655 35.1551 21.4461C34.9512 22.1436 34.729 22.9091 34.477 23.7723C33.9182 21.857 33.3843 20.0279 32.8438 18.1822C38.5308 16.4176 44.1698 14.6697 49.8502 12.9068C50.4653 16.3679 51.0755 19.7926 51.6889 23.2454H51.6856ZM49.0908 21.3699C45.2724 22.5545 40.92 23.7507 37.037 24.9486C37.7267 22.465 38.4164 19.9881 39.1045 17.5111C41.7225 16.7374 44.3107 15.9703 46.9188 15.1982C47.6483 17.2709 48.3646 19.3105 49.0891 21.3699H49.0908ZM47.2404 15.1154C47.514 15.0292 47.781 14.9447 48.0844 14.8486C48.2767 15.4053 48.5005 15.9305 48.6382 16.4806C48.8504 17.3239 49.0095 18.1788 49.1754 19.0321C49.3063 19.7064 49.4174 20.3824 49.5285 21.0601C49.5467 21.1678 49.5285 21.2804 49.5219 21.3914C49.3859 21.1081 49.2267 20.8314 49.1223 20.5365C48.5055 18.8018 47.9036 17.0638 47.2952 15.3241C47.2753 15.2678 47.2637 15.2081 47.2388 15.1137L47.2404 15.1154ZM40.5404 24.3654C42.7207 23.6911 44.8993 23.0151 47.078 22.3424C47.8042 22.1171 48.5354 21.905 49.2549 21.6648C49.3428 21.635 49.5385 21.6615 49.5451 21.5057C49.6114 21.751 49.6761 21.9945 49.7441 22.2381C45.5426 23.5635 40.8902 24.8807 36.6921 26.1962C36.78 25.8798 36.8678 25.565 36.9557 25.2518C36.9673 25.2701 36.9773 25.285 36.9889 25.3015C38.0069 24.9867 39.5538 24.6703 40.542 24.3671L40.5404 24.3654ZM30.8243 14.8702C31.0017 14.3085 31.1692 13.7783 31.335 13.2481L31.4229 13.2299C32.1027 16.8567 33.1041 20.399 34.2067 23.928C34.273 23.938 34.3443 23.9479 34.4222 23.9595C33.6281 26.7049 32.8339 29.4403 32.0165 32.2602C30.312 30.4659 28.649 28.7163 26.9777 26.9584C28.2279 23.0284 29.4747 19.11 30.7315 15.1584C31.01 15.1783 31.2438 15.1932 31.5041 15.2098V14.9331C31.272 14.9132 31.0664 14.8934 30.8243 14.8718V14.8702ZM33.1754 29.2696C34.1885 25.7721 35.1999 22.2729 36.2096 18.772C36.2411 18.6577 36.2345 18.5351 36.2527 18.3594C36.843 18.1822 37.4714 17.9982 38.1429 17.7978C38.0749 17.8591 38.0119 17.9021 37.9704 17.8906C36.4848 23.1891 35.0042 28.4644 33.502 33.8242C33.066 33.3603 32.6598 32.9296 32.2469 32.4905C32.5603 31.4086 32.8687 30.3399 33.1771 29.2713L33.1754 29.2696ZM35.5033 20.2499C35.427 20.5133 35.359 20.7486 35.2911 20.9838C35.2695 20.9855 35.2479 20.9872 35.2281 20.9872C35.0191 20.2963 34.8135 19.6021 34.5947 18.8681C34.7389 18.8184 34.8732 18.7736 35.0473 18.7157C35.107 19.1415 35.1667 19.5325 35.2098 19.9284C35.2297 20.1157 35.233 20.2913 35.5033 20.2499ZM35.364 18.6278C35.5729 18.5649 35.7686 18.5036 36.0289 18.4257C35.878 18.9476 35.7404 19.4215 35.6011 19.897H35.5414C35.4817 19.4811 35.4254 19.0652 35.364 18.6278ZM45.1994 1.5559C46.7198 5.23737 48.2352 8.90558 49.759 12.597C44.0637 14.3632 38.4181 16.1144 32.7642 17.8674C32.3597 16.0598 31.9684 14.3151 31.5655 12.5241C31.7528 11.9442 31.9551 11.308 32.1574 10.6734C32.1823 10.6751 32.2088 10.6767 32.232 10.68C32.688 12.6616 33.1423 14.6448 33.6048 16.6579C33.6911 16.7026 33.7972 16.7606 33.8817 16.8053C38.6088 15.3457 43.2993 13.8976 47.9965 12.4479C48.0396 12.3534 48.0811 12.2656 48.1242 12.1745C46.9453 9.14085 45.7681 6.11052 44.5826 3.08184C44.518 2.91615 44.3687 2.78527 44.2775 2.661C41.2069 3.54078 37.6637 4.58624 34.6013 5.46767C34.4853 5.25228 34.3725 5.03524 34.2598 4.81985C37.8046 3.78599 41.6811 2.57816 45.2011 1.55424L45.1994 1.5559ZM32.2685 10.342L32.3928 9.93778C32.4857 9.64121 32.5769 9.33636 32.6813 9.00333C33.6247 10.6254 34.5234 12.1745 35.4569 13.78C34.6743 13.6656 33.9497 13.5596 33.1937 13.4486C32.9947 12.5854 32.6349 10.9965 32.3912 9.93944L32.2685 10.342ZM33.4722 15.6306C33.3661 15.1518 33.2583 14.6747 33.1423 14.1478C33.9481 14.2638 34.7124 14.3764 35.5049 14.4891C35.7669 14.9331 36.0305 15.3854 36.3472 15.9239C35.3607 15.8245 34.4421 15.7301 33.4722 15.6306ZM35.8498 16.2188C35.4668 16.3431 35.0838 16.464 34.6958 16.5883C34.3427 16.5237 34.0227 16.464 33.6761 16.4011C33.6413 16.2569 33.6032 16.1061 33.5534 15.9106C34.3443 15.9968 35.0855 16.078 35.8283 16.1575C35.8365 16.1774 35.8415 16.1989 35.8498 16.2188ZM32.673 9.04475C32.8654 8.45327 33.0527 7.88001 33.2633 7.22887C34.7887 10.0538 36.2776 12.8091 37.7963 15.619C37.4216 15.735 37.0651 15.8444 36.6937 15.9587C35.3425 13.6358 34.016 11.3511 32.673 9.0431V9.04475ZM44.2179 4.28304C44.7551 7.25041 45.2906 10.2012 45.8261 13.1487C43.6458 13.8214 41.5169 14.4775 39.3797 15.1369C39.1907 14.7873 39.0117 14.4576 38.8359 14.1246C37.5543 11.699 36.3041 9.3347 35.0755 7.0052C38.0185 6.15028 41.2865 5.12967 44.2195 4.28304H44.2179ZM34.9197 6.71691C34.8218 6.53301 34.7257 6.34744 34.6295 6.16519C37.6289 5.3053 41.1389 4.27144 44.1018 3.42314C44.1781 3.61533 44.2361 3.75948 44.3008 3.92185C41.2981 4.79002 37.9538 5.83548 34.9213 6.71691H34.9197ZM46.753 11.1025C46.8458 11.6526 46.9403 12.2027 47.0382 12.7693C46.7215 12.8671 46.4413 12.9582 46.1312 13.0559C45.6438 10.3669 45.158 7.69776 44.6722 5.03026C44.6904 5.02364 44.7053 5.02032 44.7236 5.01535C45.3602 6.65893 45.9969 8.3025 46.6353 9.94607C46.6154 9.94773 46.5955 9.9527 46.5756 9.95435C46.6353 10.3371 46.69 10.7231 46.753 11.1042V11.1025ZM47.1012 11.2914C47.1211 11.2831 47.1426 11.2765 47.1642 11.2682C47.32 11.6841 47.4726 12.1016 47.6367 12.544C47.5538 12.5904 47.4742 12.6368 47.3615 12.6997C47.2686 12.206 47.1857 11.7504 47.1012 11.2931V11.2914ZM39.0962 15.2148C38.7563 15.3241 38.4314 15.4269 38.0732 15.5428C36.5047 12.6417 34.9412 9.74725 33.3711 6.83786C33.2799 6.84615 33.1986 6.85112 33.0826 6.86106C32.8737 7.5155 32.6614 8.16829 32.4558 8.81943C30.8641 13.8297 29.2741 18.8366 27.6824 23.8452C27.3375 24.9321 26.991 26.0156 26.6428 27.1008C26.5748 27.3195 26.598 27.5101 26.7622 27.6824C28.9325 29.9556 31.0996 32.232 33.2683 34.5102C33.2766 34.5185 33.2882 34.5251 33.3197 34.5516C33.3943 34.5383 33.4871 34.5201 33.5932 34.5002C35.0888 29.1719 36.7717 23.4774 38.2722 18.1291C38.4015 18.091 38.5342 18.0529 38.6668 18.0132C37.861 20.9126 37.0552 23.8071 36.251 26.6999C36.2295 26.7761 36.2079 26.8523 36.188 26.9302C36.0537 27.4057 35.9228 27.8796 35.7901 28.3551C34.9777 31.2727 34.1669 34.1937 33.3495 37.1296C30.6204 34.3826 27.946 31.6903 25.255 28.9797C27.9012 20.7171 30.5441 12.4611 33.2169 4.10741C35.1965 7.85018 37.1348 11.5118 39.0946 15.2148H39.0962ZM10.6329 1.22619C18.1073 1.96845 25.5883 2.71071 33.1224 3.45794C30.4563 11.7901 27.7984 20.0908 25.1224 28.4545C16.8969 26.9882 8.6665 25.5252 0.392952 24.0523C3.81677 16.4193 7.21406 8.84759 10.6329 1.22619Z" fill="#707D91"/>
<path d="M32.2452 32.4873C32.5586 31.4054 32.867 30.3368 33.1754 29.2681C34.1884 25.7705 35.1998 22.2713 36.2096 18.7704C36.2411 18.6561 36.2344 18.5335 36.2527 18.3579C36.8429 18.1806 37.4713 17.9967 38.1428 17.7962C38.0749 17.8575 38.0118 17.9006 37.9704 17.889C36.4848 23.1875 35.0042 28.4629 33.502 33.8227C33.066 33.3588 32.6597 32.928 32.2469 32.489L32.2452 32.4873Z" fill="#707D91"/>
<path d="M31.5655 12.5242C31.7528 11.9443 31.9551 11.3081 32.1574 10.6735C32.1822 10.6752 32.2088 10.6768 32.232 10.6802C32.6879 12.6617 33.1422 14.6449 33.6048 16.658C33.691 16.7027 33.7972 16.7607 33.8817 16.8054C38.6087 15.3458 43.2993 13.8977 47.9965 12.448C48.0396 12.3535 48.081 12.2657 48.1241 12.1746C46.9453 9.14096 45.7681 6.11063 44.5826 3.08195C44.5179 2.91626 44.3687 2.78537 44.2775 2.66111C41.2069 3.54089 37.6637 4.58634 34.6013 5.46778C34.4852 5.25239 34.3725 5.03534 34.2597 4.81996C37.8046 3.7861 41.6811 2.57827 45.2011 1.55435C46.7215 5.23582 48.2369 8.90403 49.7606 12.5954C44.0653 14.3616 38.4197 16.1129 32.7659 17.8658C32.3613 16.0582 31.97 14.3136 31.5671 12.5225L31.5655 12.5242Z" fill="#EE1B24"/>
<path d="M32.8405 18.1823C38.5275 16.4177 44.1665 14.6698 49.8469 12.9069C50.462 16.368 51.0722 19.7927 51.6856 23.2455C46.6668 24.7913 41.2533 26.3057 36.2312 27.8482C36.3506 27.4191 36.4683 26.9916 36.5893 26.5641C40.9565 25.189 45.8295 23.8105 50.0956 22.4635C49.6297 19.7894 49.1754 17.1749 48.7211 14.5654C48.6266 14.5091 48.5437 14.4561 48.4608 14.4047C43.7835 15.7898 39.1128 17.1733 34.4339 18.5584C34.3659 18.6578 34.2979 18.7588 34.2498 18.8301C34.4753 19.5806 34.6876 20.2964 34.913 21.0088C34.9562 21.1463 35.0523 21.2656 35.1551 21.4462C34.9512 22.1437 34.729 22.9092 34.477 23.7724C33.9182 21.8571 33.3843 20.028 32.8438 18.1823H32.8405Z" fill="#707D91"/>
<path d="M25.3777 28.5706C28.0239 20.308 30.6668 12.052 33.3396 3.69827C35.3192 7.44104 37.2575 11.1026 39.2173 14.8056C38.8774 14.915 38.5524 15.0177 38.1943 15.1337C36.6258 12.2326 35.0622 9.33811 33.4921 6.42872C33.4009 6.43701 33.3197 6.44198 33.2036 6.45192C32.9947 7.10637 32.7825 7.75915 32.5769 8.41029C30.9852 13.4205 29.3951 18.4275 27.8034 23.436C27.4585 24.5229 27.112 25.6065 26.7638 26.6917C26.6942 26.9104 26.7191 27.101 26.8832 27.2733C29.0536 29.5464 31.2206 31.8229 33.3893 34.101C33.3976 34.1093 33.4092 34.116 33.4407 34.1425C33.5153 34.1292 33.6082 34.111 33.7143 34.0911C35.2098 28.7627 36.8927 23.0682 38.3932 17.72C38.5225 17.6819 38.6552 17.6438 38.7878 17.604C37.982 20.5035 37.1762 23.3979 36.3721 26.2908C36.3505 26.367 36.329 26.4432 36.3091 26.5211C36.1748 26.9966 36.0438 27.4704 35.9112 27.9459C35.0987 30.8636 34.2879 33.7846 33.4705 36.7205C30.7414 33.9735 28.067 31.2811 25.3761 28.5706H25.3777Z" fill="#707D91"/>
<path d="M25.1224 28.4529C27.7984 20.0893 30.4562 11.7886 33.1224 3.45639C25.5883 2.71081 18.1073 1.9669 10.6329 1.22464C7.21406 8.8477 3.81677 16.4194 0.392944 24.0491C8.66649 25.522 16.8953 26.9866 25.1224 28.4513V28.4529ZM9.01633 8.59089C9.76576 6.88436 10.5185 5.17783 11.258 3.46798C11.3707 3.21283 11.5216 3.10017 11.7985 3.12668C13.0138 3.23934 14.2258 3.34041 15.4412 3.45307C16.7179 3.56905 17.9929 3.69 19.2696 3.81095C20.5578 3.93024 21.8445 4.0545 23.1344 4.17213C24.6366 4.30799 26.1388 4.43557 27.6409 4.57143C28.528 4.65261 29.4167 4.74043 30.3518 4.82824C30.4065 4.89948 30.4662 4.97901 30.5325 5.06351C28.3091 11.9062 26.0874 18.7472 23.859 25.6032C23.7678 25.6579 23.6766 25.7158 23.597 25.7606C16.7742 24.6538 9.97633 23.5504 3.18174 22.4486C3.12868 22.3575 3.08558 22.2862 3.04413 22.2166C3.05739 22.1702 3.06568 22.1338 3.08226 22.1007C5.06028 17.5974 7.03831 13.0941 9.01633 8.59255V8.59089Z" fill="#707D91"/>
<path d="M3.18339 22.4469C9.97798 23.5487 16.7759 24.6538 23.5986 25.7589C23.6766 25.7142 23.7694 25.6562 23.8606 25.6015C26.0873 18.7456 28.3091 11.9045 30.5342 5.06185C30.4678 4.97735 30.4082 4.89616 30.3534 4.82658C29.4183 4.73877 28.5296 4.6493 27.6426 4.56977C26.1404 4.43391 24.6382 4.30633 23.1361 4.17047C21.8461 4.05284 20.5578 3.92858 19.2712 3.80929C17.9945 3.68999 16.7195 3.56739 15.4428 3.45141C14.2275 3.33875 13.0155 3.23768 11.8001 3.12502C11.5233 3.10016 11.3724 3.21117 11.2596 3.46632C10.5202 5.17782 9.76741 6.8827 9.01798 8.58923C7.03996 13.0925 5.06193 17.5957 3.08391 22.0973C3.06899 22.1305 3.0607 22.1653 3.04578 22.2133C3.08723 22.2829 3.13034 22.3541 3.18339 22.4453V22.4469ZM4.8381 22.4287C7.18586 16.9728 9.5187 11.5467 11.8797 6.06091C13.9921 8.52296 16.0729 10.9486 18.162 13.3808C16.935 16.9115 15.7147 20.4306 14.4779 23.9944C11.2729 23.4742 8.08286 22.9556 4.8381 22.4287ZM14.763 24.0342C15.9933 20.4852 17.2103 16.9794 18.4538 13.3973C18.3444 13.2383 18.2217 13.0262 18.0658 12.8406C16.0977 10.5377 14.1247 8.2413 12.1533 5.94162C12.1036 5.88695 12.0621 5.82564 12.0124 5.75937C12.1616 5.40978 12.3092 5.06847 12.4799 4.66752C15.03 7.7194 17.5535 10.7381 20.0919 13.7734C18.7771 17.271 17.4656 20.757 16.1458 24.2645C15.6799 24.1866 15.2389 24.1137 14.7614 24.0342H14.763ZM23.6036 25.474C21.5543 25.1426 19.5182 24.8096 17.4258 24.4716C18.6113 21.259 19.7835 18.0845 20.9674 14.8769C22.9056 15.1238 24.8289 15.3706 26.8053 15.6208C25.7292 18.9378 24.6747 22.1818 23.6053 25.474H23.6036ZM26.8832 15.3491C24.9068 15.0972 22.9537 14.8487 20.9757 14.5969C20.8977 14.6466 20.7999 14.7029 20.712 14.7576C19.5249 17.9735 18.3411 21.1778 17.144 24.4219C16.9185 24.3871 16.7013 24.3523 16.4327 24.3092C17.7425 20.8266 19.0391 17.3754 20.3473 13.896C22.6005 14.1794 24.8256 14.4577 27.0888 14.7427C27.0109 14.9763 26.9479 15.1585 26.8849 15.3474L26.8832 15.3491ZM27.1833 14.4693C24.9002 14.1843 22.6254 13.901 20.3274 13.6144C17.8287 10.6238 15.3251 7.62993 12.7734 4.5764C13.546 4.65095 14.2374 4.71557 14.9537 4.78516C15.413 5.36007 15.8756 5.93831 16.3365 6.51654C17.7508 8.29597 19.1684 10.0721 20.5728 11.8581C20.7833 12.1232 21.0204 12.2724 21.3553 12.3121C22.6652 12.4629 23.9717 12.6269 25.2799 12.7893C26.0509 12.8854 26.8169 12.9914 27.6194 13.0975C27.4701 13.5663 27.3342 13.9938 27.1833 14.4693ZM27.7222 12.8009C27.3707 12.7661 27.0241 12.7396 26.6776 12.6965C24.8969 12.4761 23.1128 12.2541 21.3338 12.0189C21.1779 11.999 20.9939 11.9029 20.8977 11.7819C19.2861 9.77386 17.6845 7.75585 16.0812 5.74114C15.859 5.45948 15.6335 5.17948 15.408 4.89782C15.4262 4.87628 15.4428 4.8564 15.4594 4.83486C20.2461 5.29877 25.0345 5.76434 29.8544 6.23157C29.1381 8.43349 28.4368 10.599 27.7205 12.8009H27.7222ZM11.6012 3.38348C17.8121 3.95343 24.0032 4.52338 30.2241 5.09498C30.1296 5.38824 30.0467 5.64505 29.9472 5.95322C24.1541 5.39321 18.3676 4.8332 12.4882 4.26326C12.407 4.36764 12.2561 4.49687 12.1848 4.66255C10.9363 7.54709 9.70109 10.4349 8.45923 13.3195C7.27706 16.0681 6.08991 18.8118 4.90442 21.5589C4.79002 21.8223 4.67561 22.0874 4.55126 22.3823C4.16163 22.3194 3.78028 22.258 3.34919 22.1885C6.10649 15.9058 8.8472 9.65954 11.6012 3.38348Z" fill="#707D91"/>
<path d="M16.4327 24.3092C17.7425 20.8266 19.0391 17.3754 20.3473 13.8961C22.6005 14.1794 24.8256 14.4577 27.0888 14.7427C27.0109 14.9763 26.9479 15.1586 26.8849 15.3474C24.9085 15.0956 22.9553 14.8471 20.9773 14.5952C20.8994 14.6449 20.8016 14.7013 20.7137 14.756C19.5266 17.9719 18.3427 21.1762 17.1456 24.4202C16.9201 24.3854 16.7029 24.3506 16.4343 24.3076L16.4327 24.3092Z" fill="#EE1B24"/>
<path d="M12.0124 5.75936C12.1616 5.40977 12.3092 5.06846 12.4799 4.66751C15.03 7.71939 17.5535 10.7381 20.0919 13.7734C18.7771 17.271 17.4656 20.757 16.1458 24.2645C15.6799 24.1866 15.2389 24.1137 14.7614 24.0342C15.9916 20.4852 17.2086 16.9794 18.4521 13.3973C18.3427 13.2383 18.22 13.0262 18.0642 12.8406C16.0961 10.5376 14.123 8.24129 12.1516 5.94161C12.1019 5.88694 12.0605 5.82563 12.0107 5.75936H12.0124Z" fill="#FF5C68"/>
<path d="M3.59627 25.7241C6.7117 27.9725 9.82713 30.2224 12.9492 32.4625C13.1432 32.6033 13.3919 32.7027 13.629 32.7491C15.4843 33.1219 17.3463 33.4764 19.2049 33.836C22.012 34.3794 24.8173 34.9262 27.626 35.4713C28.6954 35.68 29.7649 35.8855 30.8509 36.0959C30.8791 36.0097 30.9006 35.9434 30.9106 35.912C28.4484 33.5609 26.0094 31.2298 23.5025 28.8357C16.9202 27.6759 10.2383 26.4995 3.53492 25.3215C3.49182 25.3928 3.44705 25.4624 3.38736 25.5618C3.48021 25.6347 3.53658 25.6844 3.59793 25.7275L3.59627 25.7241ZM23.3583 29.0941C24.7162 30.3931 26.0526 31.6672 27.384 32.9413L27.3607 33.0059C23.3102 32.252 19.2613 31.4998 15.1792 30.7394C15.549 29.7552 15.9005 28.8224 16.2669 27.8498C18.6362 28.2657 20.9906 28.6816 23.3583 29.0958V29.0941ZM8.91356 26.5542C10.3129 26.7994 11.714 27.0479 13.1564 27.3014C12.8928 27.9675 12.6458 28.602 12.3772 29.2813C11.195 28.3784 10.0394 27.4936 8.88537 26.6089C8.89532 26.5907 8.90361 26.5708 8.91356 26.5542ZM7.9519 26.3836C8.10278 26.4117 8.25698 26.4979 8.38299 26.594C9.69449 27.5864 10.9994 28.5888 12.3191 29.5961C12.407 29.5647 12.4982 29.5332 12.5944 29.5C12.8779 28.7843 13.1581 28.0785 13.4483 27.3495C14.2922 27.5003 15.1162 27.6477 15.9801 27.8035C15.6087 28.7959 15.2505 29.7502 14.8858 30.7294C14.9289 30.8123 14.9803 30.9084 15.025 30.9962C16.8588 31.3424 18.6694 31.6837 20.4833 32.0217C22.322 32.363 24.1591 32.7027 25.9978 33.0407C26.5035 33.1351 27.0126 33.208 27.5133 33.324C27.7073 33.3687 27.9145 33.4715 28.0637 33.6057C28.7419 34.2253 29.4001 34.8632 30.0666 35.4961C30.0981 35.5276 30.123 35.5673 30.128 35.6668C29.6554 35.5789 29.1846 35.4911 28.7137 35.4017C25.7442 34.8284 22.7763 34.2551 19.8068 33.6786C17.7392 33.2776 15.6683 32.8783 13.6024 32.4707C13.4499 32.4393 13.2924 32.3647 13.1614 32.2719C10.1836 30.133 7.20745 27.989 4.23295 25.8451C4.20311 25.8252 4.18653 25.7904 4.12352 25.7142C5.43668 25.9428 6.69512 26.1582 7.9519 26.3869V26.3836Z" fill="#707D91"/>
<path d="M0.717928 24.5312C4.52641 27.2186 8.33324 29.9043 12.1434 32.5867C12.2826 32.6828 12.4534 32.7557 12.6192 32.7888C15.3284 33.319 18.0377 33.8426 20.7485 34.3661C23.544 34.9079 26.3394 35.4513 29.1365 35.9931C30.4264 36.2433 31.718 36.4918 33.071 36.7553C33.0046 36.6575 32.9881 36.6244 32.9649 36.5995C30.4214 34.0381 27.8764 31.4783 25.3263 28.9218C25.2285 28.8224 25.0809 28.7395 24.9433 28.7114C24.2552 28.5739 23.5605 28.4513 22.8691 28.3303C20.6706 27.941 18.4704 27.5582 16.2719 27.1672C14.0601 26.7762 11.8499 26.3802 9.6381 25.9842C7.18091 25.5435 4.7204 25.1028 2.26321 24.6621C1.72269 24.566 1.18217 24.4782 0.572021 24.3738C0.654923 24.4649 0.681451 24.5047 0.719586 24.5312H0.717928ZM3.53325 25.3182C10.235 26.4962 16.9185 27.6742 23.5008 28.8323C26.0078 31.2264 28.4467 33.5576 30.9089 35.9086C30.899 35.9401 30.8774 36.0064 30.8492 36.0925C29.7632 35.8821 28.6938 35.6767 27.6244 35.4679C24.8173 34.9245 22.0119 34.3777 19.2032 33.8326C17.3446 33.4731 15.4843 33.1202 13.6273 32.7458C13.3902 32.6994 13.1415 32.6 12.9475 32.4591C9.82546 30.2191 6.71169 27.9675 3.5946 25.7208C3.53325 25.6777 3.47688 25.628 3.38403 25.5551C3.44372 25.4574 3.48849 25.3861 3.5316 25.3149L3.53325 25.3182Z" fill="#EE1B24"/>
<path d="M34.3626 23.8171L34.1901 23.8685L34.3941 24.5942L34.5698 24.0027L34.3626 23.8171Z" fill="#707D91"/>
<path d="M38.1047 18.0448L37.9356 18.0017L38.0367 17.6537H38.2805L38.1047 18.0448Z" fill="#707D91"/>
<path d="M46.7563 9.65129L46.7082 9.60987L46.6469 9.11945L46.9055 9.45081L46.7563 9.65129Z" fill="#707D91"/>
<path d="M31.3035 15.0177V14.9117L31.9949 14.9697V15.2746L31.1526 15.1586L31.3035 15.0177Z" fill="#707D91"/>
</svg>
