<?xml version="1.0" standalone="no"?>
<!DOCTYPE svg PUBLIC "-//W3C//DTD SVG 20010904//EN"
 "http://www.w3.org/TR/2001/REC-SVG-20010904/DTD/svg10.dtd">
<svg version="1.0" xmlns="http://www.w3.org/2000/svg"
 width="832.000000pt" height="832.000000pt" viewBox="0 0 832.000000 832.000000"
 preserveAspectRatio="xMidYMid meet">
<metadata>
Created by potrace 1.14, written by Peter Selinger 2001-2017
</metadata>
<g transform="translate(0.000000,832.000000) scale(0.100000,-0.100000)"
fill="#000000" stroke="none">
<path d="M1684 6882 c-16 -11 -49 -64 -64 -102 -7 -19 -26 -62 -41 -95 -92
-204 -169 -375 -169 -378 0 -3 -17 -40 -37 -83 -20 -43 -37 -81 -38 -84 -1 -3
-11 -25 -22 -50 -12 -25 -40 -87 -62 -137 -22 -51 -53 -121 -69 -155 -16 -35
-48 -106 -72 -158 -23 -52 -51 -115 -62 -140 -32 -69 -52 -114 -53 -120 -1 -3
-13 -31 -28 -64 -15 -32 -27 -62 -27 -67 0 -5 -4 -9 -8 -9 -5 0 -9 -6 -9 -12
0 -7 -21 -57 -47 -111 -25 -54 -46 -104 -46 -111 0 -8 -6 -19 -14 -25 -8 -7
-17 -23 -20 -36 -3 -13 -19 -52 -35 -87 -16 -35 -59 -130 -96 -213 -37 -82
-70 -154 -73 -160 -4 -5 -7 -14 -9 -20 -1 -5 -50 -116 -108 -245 -97 -213
-125 -275 -130 -290 -2 -6 -50 -111 -75 -165 -10 -22 -49 -107 -85 -190 -37
-82 -78 -175 -92 -205 -14 -30 -24 -55 -22 -55 2 0 -4 -13 -13 -30 -61 -116
-60 -115 -47 -133 22 -28 47 -51 81 -75 99 -67 243 -173 246 -179 2 -5 8 -8
13 -8 6 0 33 -17 62 -38 57 -42 247 -177 652 -462 348 -245 322 -227 475 -334
74 -53 140 -99 145 -103 6 -5 51 -37 100 -73 153 -108 225 -141 338 -154 12
-2 36 -6 52 -9 17 -3 47 -9 69 -12 21 -3 41 -7 45 -9 3 -2 22 -7 41 -10 19 -3
46 -8 60 -11 14 -3 39 -8 55 -11 68 -12 283 -54 325 -64 25 -5 58 -12 74 -14
16 -3 52 -10 80 -15 54 -11 89 -18 146 -27 19 -3 42 -10 51 -15 9 -4 19 -6 22
-3 3 3 22 1 43 -5 22 -6 53 -12 69 -15 17 -3 55 -10 85 -16 30 -6 66 -13 80
-16 14 -2 36 -7 50 -10 33 -8 51 -11 91 -18 19 -3 43 -7 54 -10 20 -4 167 -31
215 -40 14 -2 25 -5 25 -6 0 -2 19 -6 65 -14 47 -8 90 -16 120 -22 14 -3 39
-7 55 -10 17 -2 37 -7 45 -10 8 -3 33 -8 55 -11 22 -3 80 -14 129 -24 79 -17
135 -19 468 -19 208 0 378 3 378 6 0 4 -251 258 -557 566 -420 420 -558 565
-559 583 -1 14 2 25 6 25 8 0 2 6 648 -644 l533 -536 95 0 c111 0 94 -22 154
200 23 85 48 174 56 197 7 23 16 52 18 65 7 31 50 190 87 318 17 58 33 112 35
120 8 35 46 176 52 190 3 8 6 17 7 20 21 84 29 116 27 123 -1 4 3 9 10 12 79
25 245 76 262 80 11 2 73 20 136 40 63 20 120 37 125 39 6 1 35 10 65 19 111
34 230 68 247 72 10 2 38 10 63 18 25 8 108 33 185 56 77 22 239 70 360 106
121 36 228 68 237 70 15 3 145 42 473 140 44 13 127 39 185 56 58 18 110 34
115 35 33 7 65 26 75 43 10 19 4 70 -24 216 -2 11 -7 40 -11 65 -4 25 -9 52
-10 61 -2 9 -6 34 -10 55 -8 51 -14 83 -21 114 -3 14 -7 39 -9 55 -2 17 -6 44
-9 60 -3 17 -8 44 -11 60 -3 17 -7 41 -10 55 -3 14 -7 39 -10 55 -2 17 -9 57
-15 90 -24 135 -32 181 -36 200 -1 11 -10 58 -19 105 -8 47 -18 100 -21 119
-3 18 -8 43 -10 55 -3 11 -7 35 -10 51 -28 172 -62 314 -93 390 -16 37 -29 70
-56 140 -15 39 -34 84 -41 100 -6 17 -38 93 -69 170 -57 140 -72 176 -99 238
-8 17 -24 57 -36 87 -12 30 -28 71 -37 90 -8 19 -19 44 -23 55 -4 11 -15 36
-23 55 -8 19 -54 130 -102 245 -74 181 -143 347 -190 460 -7 17 -17 42 -23 56
-13 33 -50 43 -105 28 -23 -7 -46 -13 -52 -15 -5 -1 -77 -22 -160 -47 -82 -25
-166 -50 -185 -55 -19 -6 -141 -42 -270 -82 -129 -39 -239 -73 -245 -74 -23
-5 -133 -39 -167 -52 -21 -8 -38 -11 -38 -8 0 4 -7 1 -15 -6 -8 -7 -15 -10
-15 -6 0 3 -17 -1 -37 -9 -45 -17 -516 -155 -530 -155 -5 0 -29 37 -53 83 -36
69 -79 124 -100 128 -14 3 -62 8 -125 13 -38 4 -88 8 -110 11 -22 2 -69 7
-105 10 -36 3 -85 8 -110 10 -25 3 -69 7 -97 10 -29 3 -75 7 -102 10 -26 3
-70 7 -97 10 -27 2 -74 7 -104 10 -30 3 -77 8 -105 11 -27 2 -66 7 -85 9 -19
3 -62 7 -95 10 -117 9 -180 16 -205 20 -14 3 -54 7 -90 10 -69 5 -166 14 -215
20 -16 2 -61 7 -100 10 -38 4 -86 8 -105 10 -19 2 -66 7 -105 10 -38 3 -80 8
-91 10 -12 2 -61 6 -110 10 -49 4 -100 9 -114 11 -14 2 -58 6 -99 9 -41 3 -86
7 -100 10 -14 2 -55 7 -91 10 -36 3 -87 7 -115 10 -27 3 -72 8 -100 10 -27 3
-70 7 -95 10 -50 5 -116 12 -205 20 -33 3 -76 8 -95 10 -42 5 -144 16 -290 30
-118 12 -156 13 -166 7z m316 -396 c41 -4 93 -9 115 -11 22 -3 71 -7 110 -10
38 -3 81 -7 95 -10 14 -2 61 -7 105 -10 44 -3 98 -7 120 -10 50 -5 151 -15
230 -21 33 -2 78 -6 100 -9 39 -4 115 -11 220 -20 120 -10 183 -16 225 -21 25
-3 70 -7 100 -10 96 -6 194 -15 225 -20 17 -2 59 -6 95 -9 36 -3 85 -7 110
-10 48 -5 107 -10 230 -20 41 -4 91 -8 110 -10 19 -2 69 -7 110 -10 41 -3 85
-8 98 -10 12 -2 62 -7 110 -10 48 -4 103 -9 122 -11 19 -2 71 -6 115 -10 44
-3 82 -8 83 -9 2 -2 -4 -30 -14 -62 -10 -32 -17 -62 -16 -66 2 -8 -74 -4 -187
8 -25 3 -68 7 -96 10 -27 2 -70 6 -95 9 -25 3 -74 8 -110 11 -132 11 -176 16
-215 20 -22 3 -65 7 -95 10 -30 2 -84 7 -120 11 -36 4 -78 8 -95 9 -68 6 -172
16 -205 20 -50 6 -134 14 -215 21 -38 3 -88 8 -110 10 -22 2 -65 7 -95 9 -57
5 -121 12 -200 20 -47 5 -129 13 -215 20 -27 3 -77 7 -110 11 -33 4 -73 8 -90
9 -16 2 -61 6 -100 9 -102 10 -160 16 -197 20 -30 4 -158 16 -218 21 -43 3
-68 -27 -120 -150 -4 -11 -17 -41 -29 -67 -12 -26 -21 -50 -21 -53 0 -2 -11
-28 -24 -57 -14 -29 -46 -102 -71 -163 -26 -60 -60 -138 -76 -173 -16 -35 -29
-69 -29 -76 0 -6 -4 -16 -9 -21 -5 -6 -46 -98 -91 -205 -45 -107 -94 -220
-107 -250 -14 -30 -41 -93 -60 -140 -19 -47 -40 -91 -47 -99 -6 -8 -10 -15 -8
-15 4 -1 -12 -45 -43 -112 -14 -30 -25 -58 -25 -62 0 -4 -7 -20 -16 -37 -8
-16 -63 -140 -120 -275 -58 -135 -112 -258 -119 -275 -60 -136 -97 -222 -99
-230 -1 -5 -10 -28 -20 -50 -27 -58 -51 -113 -76 -170 -11 -27 -26 -61 -32
-75 -6 -14 -14 -34 -18 -45 -29 -79 -45 -98 -76 -90 -12 2 -39 7 -60 10 -70
11 -86 14 -90 18 -3 3 106 259 199 470 9 20 23 52 31 70 38 87 170 387 188
427 11 25 24 54 28 65 5 11 23 51 39 88 17 38 31 70 31 72 0 2 15 36 34 77 18
40 55 123 81 183 26 61 55 128 65 150 10 22 58 132 108 245 49 113 99 225 110
250 32 70 273 622 283 648 5 13 20 46 33 75 43 94 66 147 66 155 0 17 22 29
53 27 18 -2 66 -6 107 -9z m5073 -36 c8 -22 11 -41 6 -41 -16 -2 -22 -4 -99
-27 -200 -60 -237 -71 -260 -78 -14 -5 -27 -9 -30 -9 -10 -3 -130 -39 -340
-102 -118 -36 -229 -69 -245 -73 -17 -4 -42 -13 -55 -20 -14 -7 -26 -12 -28
-11 -4 4 -65 -10 -77 -17 -5 -4 -14 -7 -20 -8 -23 -4 -301 -87 -316 -95 -13
-6 -21 2 -39 36 -13 25 -21 47 -19 49 3 3 534 159 579 170 8 2 87 25 175 51
288 84 680 196 699 200 10 3 21 7 24 10 14 14 30 1 45 -35z m27 -232 c25 -146
28 -164 34 -193 6 -29 34 -185 40 -220 3 -16 10 -55 16 -85 6 -30 18 -93 26
-140 8 -47 17 -98 20 -115 3 -16 9 -52 14 -80 5 -27 12 -61 15 -75 3 -14 7
-41 10 -60 3 -19 7 -46 10 -60 8 -39 14 -70 26 -135 5 -33 12 -72 15 -86 5
-30 43 -15 -356 -139 -74 -23 -178 -55 -230 -71 -52 -17 -108 -34 -125 -39
-16 -4 -68 -20 -115 -35 -47 -15 -111 -34 -143 -44 l-59 -17 -63 121 c-34 66
-84 161 -110 210 -27 50 -68 128 -93 175 -24 47 -56 108 -71 135 -15 28 -56
106 -93 175 -104 198 -157 299 -205 389 -25 46 -41 87 -36 91 4 4 33 14 63 22
50 14 125 37 435 129 55 17 107 32 115 34 8 2 15 4 15 5 0 1 7 3 15 5 19 5
320 94 340 101 8 3 15 5 15 4 0 -1 14 4 30 10 17 7 38 13 48 15 10 2 55 15
100 29 133 41 251 75 263 75 7 1 21 -54 34 -131z m-4943 78 c29 -4 85 -9 125
-12 40 -3 81 -6 91 -8 18 -2 41 -29 206 -236 28 -36 57 -72 64 -80 7 -8 28
-35 47 -60 19 -24 45 -56 56 -70 12 -14 54 -65 93 -115 39 -49 74 -94 79 -100
4 -5 32 -41 62 -80 30 -38 57 -72 60 -75 3 -3 19 -23 36 -45 16 -22 38 -49 49
-61 11 -12 29 -34 40 -50 11 -15 31 -42 45 -58 14 -17 29 -37 35 -44 41 -55
102 -113 128 -121 18 -6 59 -13 92 -17 33 -3 68 -8 77 -9 9 -2 48 -7 85 -10
37 -4 75 -9 83 -10 8 -1 42 -6 75 -9 33 -4 74 -9 90 -12 17 -2 53 -6 80 -9 48
-5 232 -29 305 -40 19 -3 58 -8 85 -11 79 -9 77 -4 45 -99 -16 -47 -27 -85
-24 -85 3 0 0 -9 -7 -21 -10 -19 -16 -20 -77 -14 -37 4 -82 8 -99 10 -18 1
-48 5 -65 9 -37 6 -105 15 -158 20 -54 6 -152 17 -180 22 -14 2 -43 6 -65 9
-22 3 -114 14 -205 25 -91 11 -185 23 -210 26 -47 6 -49 7 -120 94 -25 30 -52
62 -60 70 -8 9 -31 36 -50 60 -42 51 -96 117 -155 185 -24 28 -54 64 -66 80
-13 17 -28 35 -34 41 -6 6 -27 31 -46 54 -18 23 -39 47 -44 54 -6 6 -30 36
-55 66 -25 30 -47 57 -51 60 -3 3 -61 73 -130 155 -68 83 -133 161 -145 175
-34 39 -197 234 -206 245 -4 6 -25 30 -47 55 -42 48 -44 61 -8 55 12 -2 46 -6
74 -9z m430 -40 c45 -6 78 -10 213 -21 60 -5 117 -11 197 -20 28 -3 78 -8 110
-10 32 -2 74 -6 93 -9 19 -3 71 -8 115 -11 44 -4 94 -8 110 -11 17 -2 57 -6
90 -9 33 -3 76 -7 95 -10 19 -2 69 -6 110 -9 41 -2 82 -7 90 -10 8 -3 53 -8
100 -11 47 -3 101 -7 120 -9 19 -2 67 -7 105 -11 120 -11 213 -20 300 -30 22
-2 74 -7 115 -11 41 -3 91 -8 110 -10 19 -1 52 -4 73 -5 23 -2 37 -8 37 -16 0
-7 -13 -53 -29 -101 -16 -48 -71 -215 -122 -372 -193 -597 -181 -565 -209
-564 -29 1 -139 12 -190 19 -19 3 -60 7 -90 10 -30 4 -66 8 -80 10 -26 4 -84
12 -147 20 -31 4 -346 44 -470 60 -63 8 -81 25 -245 236 -14 19 -35 44 -45 55
-10 12 -29 36 -43 54 -14 18 -30 38 -35 44 -6 6 -35 43 -65 81 -30 39 -57 72
-60 75 -3 3 -17 21 -30 40 -13 19 -27 37 -31 40 -3 3 -72 88 -153 190 -81 102
-152 192 -159 200 -7 8 -31 39 -55 67 -24 29 -41 56 -38 61 5 9 34 8 113 -2z
m4603 -108 c17 -46 47 -123 67 -173 19 -49 39 -101 45 -115 17 -40 24 -57 78
-200 28 -74 56 -145 62 -157 6 -12 12 -43 13 -70 2 -26 4 -48 5 -48 1 0 3 -13
5 -30 2 -16 10 -68 19 -115 9 -47 18 -99 20 -115 4 -26 12 -73 19 -108 2 -10
-102 -55 -130 -56 -13 -1 -20 20 -27 79 -3 19 -5 35 -6 35 -2 0 -4 11 -19 100
-6 33 -13 69 -15 80 -6 32 -34 187 -40 220 -11 69 -38 215 -51 280 -8 39 -17
93 -21 120 -3 28 -8 52 -9 55 -2 3 -11 46 -19 95 -9 50 -18 101 -21 115 -23
117 -19 118 25 8z m-5254 -120 c16 -18 193 -224 393 -458 201 -234 371 -433
380 -442 9 -9 32 -36 52 -60 21 -24 60 -70 88 -103 28 -33 51 -65 51 -72 0 -6
-14 -51 -31 -100 -17 -48 -32 -92 -34 -98 -1 -5 -7 -21 -12 -35 -6 -14 -24
-65 -41 -115 -30 -89 -47 -138 -177 -510 -36 -104 -68 -197 -70 -205 -3 -8
-13 -40 -24 -70 -30 -84 -161 -459 -178 -512 -13 -40 -19 -47 -37 -43 -12 2
-50 8 -86 14 -36 6 -119 19 -185 30 -66 12 -138 23 -160 26 -22 2 -51 7 -65
10 -24 5 -50 9 -122 20 -18 2 -89 14 -158 26 -145 24 -149 25 -214 34 -28 3
-53 8 -56 10 -4 2 -35 7 -71 11 -35 3 -67 8 -70 10 -4 2 -24 6 -45 9 -22 3
-64 10 -94 15 -30 5 -71 11 -90 14 -58 9 -94 17 -98 21 -3 2 11 41 31 87 66
155 267 623 277 643 5 11 52 121 106 245 53 124 105 245 116 270 11 25 26 59
33 75 7 17 23 53 35 80 12 28 23 56 24 63 1 7 8 18 14 24 7 7 12 17 12 24 0 6
10 33 21 60 12 27 29 67 39 89 10 22 43 101 75 175 31 74 63 149 71 165 29 64
106 240 108 250 2 6 11 28 20 50 10 22 31 72 48 110 16 39 40 94 54 123 13 29
24 57 24 62 0 18 17 10 46 -22z m3457 -80 c19 -35 50 -92 69 -128 66 -123 121
-225 148 -275 15 -27 40 -75 56 -105 16 -30 31 -57 34 -60 3 -3 16 -27 30 -55
14 -27 55 -104 91 -170 36 -66 89 -164 117 -217 97 -181 173 -318 177 -318 2
0 16 5 32 11 49 19 79 21 93 4 18 -21 8 -29 -75 -53 -54 -17 -72 -19 -81 -9
-6 7 -35 57 -64 112 -29 55 -65 123 -80 150 -15 28 -46 86 -70 130 -23 44 -66
123 -95 175 -29 52 -78 145 -110 205 -74 140 -79 149 -85 155 -3 3 -13 21 -22
40 -17 34 -59 113 -148 275 -24 44 -50 92 -57 107 -9 16 -19 25 -28 22 -23 -9
-38 5 -24 22 6 8 8 14 4 14 -4 0 -2 7 5 15 25 30 47 17 83 -47z m-22 -155 c57
-106 78 -144 131 -243 63 -116 89 -164 130 -240 56 -102 120 -222 140 -260 34
-64 93 -174 127 -235 60 -108 141 -262 141 -267 0 -3 -12 -9 -27 -13 -41 -12
-44 -13 -96 -29 -46 -15 -48 -14 -61 7 -44 73 -106 178 -106 182 0 3 -18 34
-40 70 -22 36 -40 71 -41 78 0 9 -2 9 -5 0 -4 -8 -14 -9 -32 -3 -15 5 -67 14
-117 20 -173 21 -196 26 -207 42 -4 7 -8 20 -8 28 0 8 -11 61 -25 117 -13 56
-26 112 -29 125 -2 13 -16 72 -30 133 -15 60 -27 123 -27 140 -1 16 26 113 60
214 34 102 61 191 61 198 0 30 21 8 61 -64z m2243 -739 c5 -17 2 -23 -16 -27
-12 -4 -23 -5 -24 -4 -1 1 -4 22 -8 47 -3 25 -10 65 -16 90 -18 85 -9 85 24 0
18 -47 36 -95 40 -106z m-2580 -166 c3 -18 10 -53 16 -78 12 -57 16 -76 24
-123 l7 -37 -48 4 c-26 2 -60 4 -75 5 -28 1 -28 4 -11 49 3 9 7 22 8 27 12 50
59 185 65 185 4 0 10 -15 14 -32z m409 -133 c20 -3 52 -7 70 -9 17 -2 55 -8
82 -12 28 -4 55 -7 61 -6 13 3 35 -22 60 -68 10 -19 21 -37 24 -40 3 -3 11
-16 18 -29 45 -79 52 -92 52 -95 0 -4 -64 1 -105 8 -16 3 -61 7 -100 10 -38 4
-92 9 -120 13 -27 3 -58 6 -68 5 -42 -2 -66 16 -72 55 -4 21 -15 71 -25 112
l-19 73 52 -6 c29 -3 69 -8 90 -11z m-1965 -111 c18 -2 54 -7 80 -10 26 -3 58
-7 72 -9 14 -2 48 -7 75 -10 28 -3 61 -8 75 -10 14 -3 52 -7 85 -10 33 -3 71
-8 85 -10 29 -5 116 -17 145 -20 28 -3 136 -16 160 -20 11 -2 23 -4 27 -4 4
-1 3 -11 -2 -23 -5 -13 -39 -117 -76 -233 -36 -115 -95 -298 -131 -405 -35
-107 -66 -202 -68 -210 -2 -8 -28 -89 -58 -180 -29 -91 -80 -246 -112 -346
l-58 -181 -75 13 c-41 8 -90 16 -111 18 -36 5 -57 9 -161 26 -30 5 -72 12 -94
16 -21 3 -48 7 -59 10 -12 2 -39 6 -62 9 -49 7 -82 13 -115 20 -14 3 -45 8
-70 10 -25 3 -56 8 -70 11 -50 11 -66 13 -114 19 -28 3 -51 7 -52 8 -3 3 21
80 35 112 5 11 46 121 91 245 45 124 91 247 102 274 11 27 21 56 23 65 5 18
111 305 124 336 5 11 49 129 97 263 l89 243 45 -6 c25 -4 60 -8 78 -11z m4255
-91 c47 -140 70 -226 101 -393 3 -14 19 -95 36 -180 17 -85 33 -171 35 -190 2
-19 7 -51 10 -70 12 -65 14 -90 7 -90 -8 0 -48 84 -63 133 -6 17 -15 41 -20
52 -5 11 -36 99 -70 195 -33 96 -76 220 -96 275 -123 350 -118 332 -92 345 10
6 19 9 19 7 0 -3 17 1 38 9 20 7 42 13 47 14 6 0 27 -48 48 -107z m-2721 53
c37 -2 72 -7 77 -10 5 -3 12 -20 15 -38 11 -59 14 -72 40 -178 15 -58 28 -114
30 -125 4 -19 25 -98 83 -310 14 -49 28 -103 33 -120 14 -53 100 -347 128
-435 14 -47 26 -87 27 -90 1 -3 11 -37 23 -77 l22 -72 -19 -68 c-23 -81 -145
-501 -172 -593 -11 -36 -22 -76 -25 -89 -3 -14 -7 -28 -10 -33 -3 -4 -7 -16
-9 -25 -4 -20 -26 -97 -80 -283 -21 -69 -39 -135 -42 -148 -5 -22 -28 -31 -35
-13 -3 9 -219 239 -328 351 -25 25 -101 106 -170 178 -69 73 -160 170 -202
214 -43 45 -78 86 -78 91 0 10 29 105 40 132 5 11 13 36 19 55 5 19 30 98 54
175 58 182 162 507 244 765 35 113 75 237 88 275 22 67 67 212 71 228 1 4 2 8
4 10 1 1 3 9 5 17 3 13 57 181 70 217 2 7 10 11 17 8 7 -2 43 -6 80 -9z m2525
-86 c8 -30 19 -59 23 -65 4 -5 10 -19 13 -30 3 -11 33 -99 67 -195 83 -235
113 -323 140 -400 12 -36 33 -93 47 -128 26 -67 26 -83 2 -88 -7 -2 -117 -35
-244 -74 -126 -39 -275 -84 -330 -99 -55 -16 -219 -63 -364 -106 -145 -42
-269 -78 -275 -80 -6 -1 -18 -5 -26 -8 -11 -5 -189 -57 -275 -81 -5 -2 -17 -6
-25 -9 -37 -14 -355 -105 -358 -102 -2 2 4 30 13 62 9 32 19 65 21 73 2 8 15
56 29 105 14 50 27 97 29 106 2 9 25 91 51 182 26 92 48 173 49 180 2 6 11 38
20 71 10 32 19 64 20 70 2 6 8 31 15 56 7 25 14 52 16 60 2 8 8 29 15 45 6 17
11 30 10 30 -1 0 3 18 9 40 7 22 15 54 18 70 2 17 6 31 6 31 2 2 327 98 432
129 44 13 134 39 200 59 66 20 127 38 135 40 27 7 252 74 365 109 127 39 125
39 152 -53z m-2012 -44 c17 -2 66 -7 110 -10 44 -4 85 -12 90 -18 7 -6 7 -9 0
-8 -5 2 -13 1 -17 0 -5 -1 -11 -3 -15 -4 -5 -1 -41 -12 -81 -25 -72 -22 -92
-22 -183 -2 -48 11 -45 8 -52 49 l-7 33 63 -6 c34 -3 76 -7 92 -9z m235 -393
c0 -9 -39 -149 -48 -173 -7 -20 -9 -28 -11 -42 0 -6 -4 -8 -8 -4 -7 7 -10 18
-18 81 -2 22 -7 56 -11 76 -5 37 -2 41 54 54 8 2 16 6 20 9 8 8 22 7 22 -1z
m-145 -95 c4 -29 9 -62 11 -73 2 -11 4 -33 5 -50 3 -40 16 -65 35 -65 10 0 14
-6 11 -14 -3 -8 -11 -33 -17 -55 -6 -22 -14 -42 -18 -45 -4 -2 -18 34 -32 82
-13 48 -34 120 -47 161 -13 41 -23 80 -23 87 0 11 17 18 56 23 7 0 15 -22 19
-51z m2330 -451 c17 -56 16 -57 -95 -90 -47 -14 -146 -44 -220 -67 -178 -55
-387 -118 -415 -125 -5 -1 -17 -5 -25 -8 -8 -3 -24 -7 -35 -10 -11 -3 -74 -22
-140 -42 -117 -36 -210 -64 -230 -69 -5 -1 -35 -10 -65 -19 -30 -9 -138 -42
-240 -73 -102 -30 -279 -84 -395 -119 -115 -35 -211 -62 -213 -61 -1 2 1 14 7
27 5 13 14 43 20 66 10 36 25 51 51 53 3 0 28 7 55 16 28 9 64 18 80 20 17 3
37 8 45 11 8 3 24 8 36 10 11 2 94 23 185 48 90 25 171 47 179 49 8 2 44 14
80 26 36 12 72 23 80 25 8 2 80 24 160 49 80 24 242 74 360 111 118 36 267 82
330 102 63 20 117 37 120 38 25 7 100 29 152 46 35 11 71 22 82 24 10 3 21 7
24 10 8 8 12 1 27 -48z m-7170 -632 c44 -7 151 -25 171 -29 12 -2 39 -7 60
-10 47 -8 139 -24 174 -31 14 -3 43 -8 65 -11 22 -4 49 -11 60 -17 16 -8 135
-96 190 -139 6 -5 28 -22 50 -39 22 -16 47 -35 55 -42 9 -7 42 -32 75 -57 33
-24 65 -49 71 -55 6 -5 22 -17 34 -25 12 -8 39 -28 59 -43 20 -16 49 -38 65
-50 16 -12 36 -29 45 -38 13 -11 24 -13 43 -7 23 8 29 18 43 63 3 10 57 140
75 180 5 11 12 31 16 45 13 45 34 70 53 61 9 -5 36 -11 61 -14 25 -4 59 -9 75
-12 94 -18 144 -26 180 -31 22 -3 44 -10 49 -15 6 -5 -1 -35 -17 -76 -130
-341 -148 -395 -135 -411 7 -10 13 -18 14 -20 0 -1 86 -18 190 -37 104 -20
200 -38 214 -41 14 -2 63 -12 110 -20 47 -9 90 -17 95 -18 11 -3 64 -13 110
-21 73 -13 132 -25 155 -30 14 -3 39 -7 55 -10 17 -2 113 -20 215 -39 102 -19
199 -37 215 -40 17 -3 42 -7 58 -10 15 -4 37 -8 50 -10 36 -6 150 -28 177 -33
14 -3 34 -6 45 -8 355 -59 351 -57 493 -192 192 -184 232 -224 232 -231 0 -5
-66 4 -147 20 -82 16 -157 31 -168 32 -11 2 -47 9 -80 15 -33 6 -73 14 -90 17
-16 2 -41 7 -55 10 -14 3 -36 7 -50 10 -14 3 -32 7 -40 9 -8 3 -33 7 -55 11
-22 3 -44 7 -50 9 -5 1 -28 5 -50 9 -22 4 -74 14 -115 23 -41 8 -86 17 -100
19 -14 2 -45 9 -70 14 -25 5 -58 12 -75 15 -16 3 -41 7 -55 10 -14 3 -50 9
-80 15 -30 6 -66 13 -80 15 -14 3 -47 10 -75 16 -27 5 -59 11 -70 14 -11 2
-37 6 -59 10 -21 4 -48 9 -60 11 -11 3 -43 9 -71 14 -75 14 -98 18 -125 24
-28 6 -60 13 -280 55 -85 17 -166 32 -180 35 -14 3 -50 10 -80 15 -30 6 -66
13 -80 16 -216 42 -236 47 -295 88 -33 22 -62 43 -65 46 -3 3 -34 26 -70 51
-36 24 -69 48 -75 53 -5 4 -66 48 -135 97 -69 48 -132 94 -141 102 -9 7 -23
18 -31 23 -23 14 -164 115 -308 221 -69 50 -147 106 -175 126 -128 90 -387
279 -406 297 -20 18 -20 19 28 9 26 -5 57 -11 68 -13z m720 -125 c0 -2 8 -3
70 -14 17 -2 44 -7 60 -10 17 -3 71 -12 120 -20 50 -9 100 -18 111 -20 12 -2
37 -7 55 -10 19 -3 70 -12 114 -21 44 -8 81 -15 83 -15 1 0 -4 -12 -12 -27 -7
-16 -35 -82 -61 -148 -26 -66 -51 -124 -55 -128 -5 -6 -133 86 -230 166 -8 7
-31 23 -50 37 -19 14 -44 32 -55 42 -11 9 -56 44 -100 77 -44 33 -91 70 -105
81 l-25 20 40 -4 c22 -3 40 -5 40 -6z m1181 -212 c3 -5 9 -6 14 -3 5 3 27 2
47 -4 21 -5 56 -12 78 -15 22 -3 49 -7 60 -9 25 -5 93 -18 123 -23 12 -2 50
-9 85 -14 34 -6 73 -13 87 -15 14 -3 75 -14 135 -24 61 -11 124 -22 140 -25
95 -16 215 -37 245 -45 19 -4 38 -7 41 -7 4 1 84 -73 179 -164 414 -396 471
-452 467 -456 -2 -2 -42 3 -88 12 -46 9 -95 17 -109 19 -14 2 -25 4 -25 5 0 2
-11 4 -100 19 -33 6 -71 13 -85 16 -67 14 -87 17 -105 20 -11 1 -31 5 -45 8
-14 4 -38 9 -55 11 -16 2 -30 5 -30 6 0 1 -9 3 -20 4 -11 1 -38 6 -60 11 -22
4 -49 9 -60 10 -11 2 -36 6 -55 10 -19 4 -44 9 -55 10 -20 3 -59 10 -105 20
-14 3 -50 9 -80 15 -30 6 -66 12 -80 15 -14 3 -38 7 -55 10 -39 6 -79 14 -107
20 -73 14 -110 21 -163 30 -16 3 -41 7 -55 10 -14 3 -38 8 -55 10 -16 3 -38 8
-47 11 -9 3 -32 7 -50 9 -51 6 -102 15 -118 21 -8 3 -35 8 -59 10 -23 2 -51 9
-61 14 -18 9 -18 12 0 57 42 112 139 369 145 386 5 13 17 17 42 15 19 -1 37
-6 39 -10z"/>
</g>
</svg>
